<?xml version="1.0" encoding="utf-8"?>
<!-- Generator: Adobe Illustrator 24.0.1, SVG Export Plug-In . SVG Version: 6.00 Build 0)  -->
<svg version="1.1" id="Capa_1" xmlns="http://www.w3.org/2000/svg" xmlns:xlink="http://www.w3.org/1999/xlink" x="0px" y="0px"
	 viewBox="0 0 95.7 62" style="enable-background:new 0 0 95.7 62;" xml:space="preserve">
<style type="text/css">
	.st0{fill:#FFFFFF;}
	.st1{font-family:'Avenir-Roman';}
	.st2{font-size:10.077px;}
	.st3{fill:#DDBD7D;}
</style>
<g>
	<text transform="matrix(1 0 0 1 2.9135 60.6426)"><tspan x="0" y="0" class="st0 st1 st2">BARCINO</tspan><tspan x="50.8" y="0" class="st3 st1 st2">MEATS</tspan></text>
	<g>
		<path class="st3" d="M84.3,38c0-2.4-1-4.6-3-6.6s-4.2-3-6.6-3.1c-2.4-0.1-4.7,1-6.8,3.1L50.5,48.6h2.7l15.9-15.9
			c1.8-1.8,3.7-2.7,5.6-2.5c1.9,0.1,3.6,1,5.1,2.5c1.5,1.5,2.3,3.2,2.4,5c0.1,1.9-0.7,3.7-2.6,5.5l-5.3,5.3h2.7l3.9-3.9
			C83.2,42.6,84.3,40.4,84.3,38z"/>
		<path class="st3" d="M46,9.6c1.6-1.6,3.3-2.8,5-3.7c1.8-0.9,3.6-1.3,5.5-1.4c1.9-0.1,3.8,0.3,5.7,1.1c1.9,0.8,3.8,2.1,5.6,4
			c1.9,1.9,3.2,3.8,4,5.9c0.8,2.1,1,4.3,0.8,6.9c4.9-0.4,9.2,1.2,12.8,4.8c1.8,1.8,3.1,3.7,4,5.6c0.8,1.9,1.2,3.8,1.1,5.7
			c-0.1,1.9-0.6,3.7-1.4,5.5c-0.8,1.6-1.9,3.2-3.3,4.7h2.6c1.1-1.3,1.9-2.6,2.7-4c1-2,1.6-4.1,1.7-6.2c0.1-2.1-0.4-4.2-1.3-6.4
			c-0.9-2.2-2.4-4.3-4.5-6.4c-2-2-4-3.4-6.1-4.3c-2.1-0.9-4.1-1.3-6.1-1.3c0-2-0.4-4-1.2-6c-0.8-2-2.2-4-4.2-6
			c-2.1-2.1-4.3-3.6-6.4-4.5c-2.2-0.9-4.3-1.3-6.4-1.3C54.5,2.4,52.4,3,50.4,4c-2,1-3.9,2.4-5.7,4.2L4.3,48.6H7L46,9.6z"/>
		<path class="st3" d="M70.7,18.4c-0.5-2.7-1.9-5.2-4.1-7.4c-3.1-3.1-6.4-4.6-9.8-4.4c-3.4,0.2-6.5,1.7-9.3,4.5L9.8,48.6h3
			l36.1-36.1c2.5-2.5,5.2-3.8,8-3.9c2.8-0.1,5.6,1.2,8.2,3.8c2.6,2.6,3.8,5.3,3.8,8.2c-0.1,2.9-1.3,5.6-3.8,8.1l-20,20h2.7L66.4,30
			c2.5-2.5,5.2-3.8,8-3.9c2.9-0.1,5.6,1.2,8.2,3.8c2.6,2.6,3.8,5.3,3.7,8.2c-0.1,2.9-1.4,5.5-3.9,8l-2.5,2.5h2.9l1.1-1.1
			c2.8-2.8,4.3-5.9,4.5-9.3c0.2-3.4-1.3-6.6-4.4-9.7c-4.8-4.8-9.8-5.7-15-2.7C70.7,23.6,71.2,21.1,70.7,18.4z"/>
		<path class="st3" d="M66.7,20.4c0-2.4-1.1-4.6-3.1-6.6c-2-2-4.2-3-6.6-3.1c-2.4,0-4.7,1-6.8,3.1L15.6,48.6h2.7l33.4-33.4
			c1.8-1.8,3.7-2.7,5.5-2.6c1.9,0.1,3.6,1,5.1,2.5c1.5,1.5,2.3,3.2,2.5,5.1c0.1,1.9-0.7,3.7-2.5,5.6L39.5,48.6h2.7l21.4-21.4
			C65.7,25.1,66.8,22.8,66.7,20.4z"/>
	</g>
</g>
</svg>
